<?xml version="1.0" encoding="UTF-8" standalone="no"?>
<svg viewBox="0 0 40 40" width="40" height="40" version="1.1" id="svg29" xml:space="preserve" xmlns="http://www.w3.org/2000/svg" xmlns:svg="http://www.w3.org/2000/svg">
  <g id="g3" transform="matrix(0.07029436,0,0,0.07029436,2.0046438,2.1980803)">
    <path style="display:inline;fill:#b4bbcc" d="m 470.037,500.63126 c 18.379,0 33.279,-14.9 33.279,-33.279 V 39.145131 c 0,-18.379 -14.9,-33.2790004 -33.279,-33.2790004 H 41.963 c -18.379,0 -33.279,14.9000004 -33.279,33.2790004 V 467.35126 c 0,18.379 14.9,33.279 33.279,33.279 z" id="path1"/>
    <rect x="58.272999" y="117.83113" style="fill:#ffffff;stroke-width:1.13315" width="395.466" height="334.57953" id="rect1"/>
    <rect x="58.272999" y="117.83113" style="opacity:0.11;fill-opacity:1;stroke-width:1;enable-background:new" width="395.466" height="43.418995" id="rect2"/>
    <path style="display:inline;opacity:0.11;enable-background:new" d="M 103.142,467.35226 V 39.145131 c 0,-18.379 14.9,-33.2790004 33.279,-33.2790004 H 41.963 c -18.379,0 -33.279,14.9000004 -33.279,33.2790004 V 467.35126 c 0,18.379 14.9,33.279 33.279,33.279 h 94.459 c -18.38,10e-4 -33.28,-14.899 -33.28,-33.278 z" id="path2"/>
    <path d="M 41.963,-2.8178694 C 18.825,-2.8178694 0,16.008131 0,39.145131 V 467.35126 c 0,23.138 18.825,41.963 41.963,41.963 H 371.07 c 4.797,0 8.684,-3.888 8.684,-8.684 0,-4.796 -3.887,-8.684 -8.684,-8.684 H 41.963 c -13.563,0 -24.596,-11.033 -24.596,-24.596 V 39.145131 c 0,-13.562 11.033,-24.596 24.596,-24.596 h 428.074 c 13.563,0 24.596,11.033 24.596,24.596 V 467.35126 c 0,13.562 -11.033,24.596 -24.596,24.596 h -64.233 c -4.797,0 -8.684,3.888 -8.684,8.684 0,4.796 3.887,8.684 8.684,8.684 h 64.233 c 23.138,0 41.963,-18.824 41.963,-41.963 V 39.145131 c 0,-23.138 -18.825,-41.9630004 -41.963,-41.9630004 z" id="path6" style="display:inline;stroke:#242424;stroke-width:1.28033;stroke-dasharray:none;stroke-opacity:0.898039"/>
    <path d="M 41.963,-2.8178694 C 18.825,-2.8178694 0,16.008131 0,39.145131 V 467.35126 c 0,23.138 18.825,41.963 41.963,41.963 H 371.07 c 4.797,0 8.684,-3.888 8.684,-8.684 0,-4.796 -3.887,-8.684 -8.684,-8.684 H 41.963 c -13.563,0 -24.596,-11.033 -24.596,-24.596 V 39.145131 c 0,-13.562 11.033,-24.596 24.596,-24.596 h 428.074 c 13.563,0 24.596,11.033 24.596,24.596 V 467.35126 c 0,13.562 -11.033,24.596 -24.596,24.596 h -64.233 c -4.797,0 -8.684,3.888 -8.684,8.684 0,4.796 3.887,8.684 8.684,8.684 h 64.233 c 23.138,0 41.963,-18.824 41.963,-41.963 V 39.145131 c 0,-23.138 -18.825,-41.9630004 -41.963,-41.9630004 z" id="path3"/>
    <path d="m 131.414,117.83113 c 0,4.796 3.887,8.684 8.684,8.684 H 445.05 v 54.825 c 0,4.796 3.887,8.684 8.684,8.684 4.797,0 8.684,-3.888 8.684,-8.684 v -63.509 c 0,-4.796 -3.887,-8.684 -8.684,-8.684 H 140.098 c -4.797,10e-4 -8.684,3.888 -8.684,8.684 z" id="path4"/>
    <path d="m 105.363,126.51513 c 4.797,0 8.684,-3.888 8.684,-8.684 0,-4.796 -3.887,-8.684 -8.684,-8.684 H 58.266 c -4.797,0 -8.684,3.888 -8.684,8.684 v 331.88213 c 0,4.796 3.887,8.684 8.684,8.684 h 395.467 c 4.797,0 8.684,-3.888 8.684,-8.684 V 216.07413 c 0,-4.796 -3.887,-8.684 -8.684,-8.684 -4.797,0 -8.684,3.888 -8.684,8.684 V 441.02926 H 66.95 V 126.51513 Z" id="path5"/>
  </g>
  <g id="g21" transform="matrix(1.1996004,0,0,1.1996004,-3.9920079,-4.4202667)">
    <path d="M 256,8 C 119,8 8,119 8,256 8,393 119,504 256,504 393,504 504,393 504,256 504,119 393,8 256,8 Z m 144,276 c 0,6.6 -5.4,12 -12,12 h -92 v 92 c 0,6.6 -5.4,12 -12,12 h -56 c -6.6,0 -12,-5.4 -12,-12 v -92 h -92 c -6.6,0 -12,-5.4 -12,-12 v -56 c 0,-6.6 5.4,-12 12,-12 h 92 v -92 c 0,-6.6 5.4,-12 12,-12 h 56 c 6.6,0 12,5.4 12,12 v 92 h 92 c 6.6,0 12,5.4 12,12 z" id="path27" style="display:inline;fill:#000000;fill-opacity:1;stroke:#808080;stroke-width:2.46513;stroke-miterlimit:4.2;stroke-dasharray:none;stroke-opacity:0.9" transform="matrix(0.03043448,0,0,0.03043448,12.208773,14.354424)"/>
    <path d="M 256,8 C 119,8 8,119 8,256 8,393 119,504 256,504 393,504 504,393 504,256 504,119 393,8 256,8 Z m 144,276 c 0,6.6 -5.4,12 -12,12 h -92 v 92 c 0,6.6 -5.4,12 -12,12 h -56 c -6.6,0 -12,-5.4 -12,-12 v -92 h -92 c -6.6,0 -12,-5.4 -12,-12 v -56 c 0,-6.6 5.4,-12 12,-12 h 92 v -92 c 0,-6.6 5.4,-12 12,-12 h 56 c 6.6,0 12,5.4 12,12 v 92 h 92 c 6.6,0 12,5.4 12,12 z" id="path7" style="display:inline;fill:#000000;fill-opacity:1;stroke:none" transform="matrix(0.03043448,0,0,0.03043448,12.208773,14.354424)"/>
    <path d="m 19.148437,17.763672 c -0.200867,0 -0.365234,0.164367 -0.365234,0.365234 v 2.798828 h -2.800781 c -0.200868,0 -0.365234,0.164367 -0.365234,0.365235 v 1.705078 c 0,0.200867 0.164366,0.365234 0.365234,0.365234 h 2.800781 v 2.798828 c 0,0.200868 0.164367,0.365235 0.365234,0.365235 h 1.703125 c 0.200868,0 0.365235,-0.164367 0.365235,-0.365235 v -2.798828 h 2.800781 c 0.200868,0 0.365234,-0.164367 0.365234,-0.365234 v -1.705078 c 0,-0.200868 -0.164366,-0.365235 -0.365234,-0.365235 h -2.800781 v -2.798828 c 0,-0.200867 -0.164367,-0.365234 -0.365235,-0.365234 z" style="display:inline;fill:#bd93f9;fill-opacity:1" id="path21"/>
  </g>
</svg>
